# Blender v2.74 (sub 0) OBJ File: ''
# www.blender.org
mtllib box.mtl
o Box1
v 12.777778 9.796296 12.777778
v 13.750000 10.541667 5.000000
v 13.750000 10.541667 -5.000000
v 12.777778 9.796296 -12.777778
v 13.750000 3.833333 13.750000
v 15.000000 3.833333 5.000000
v 15.000000 3.833333 -5.000000
v 13.750000 3.833333 -13.750000
v 13.750000 -3.833333 13.750000
v 15.000000 -3.833333 5.000000
v 15.000000 -3.833333 -5.000000
v 13.750000 -3.833333 -13.750000
v 12.777778 -9.796296 12.777778
v 13.750000 -10.541667 5.000000
v 13.750000 -10.541667 -5.000000
v 12.777778 -9.796296 -12.777778
v -12.777778 9.796296 -12.777778
v -13.750000 10.541667 -5.000000
v -13.750000 10.541667 5.000000
v -12.777778 9.796296 12.777778
v -13.750000 3.833333 -13.750000
v -15.000000 3.833333 -5.000000
v -15.000000 3.833333 5.000000
v -13.750000 3.833333 13.750000
v -13.750000 -3.833333 -13.750000
v -15.000000 -3.833333 -5.000000
v -15.000000 -3.833333 5.000000
v -13.750000 -3.833333 13.750000
v -12.777778 -9.796296 -12.777778
v -13.750000 -10.541667 -5.000000
v -13.750000 -10.541667 5.000000
v -12.777778 -9.796296 12.777778
v -5.000000 10.541667 -13.750000
v 5.000000 10.541667 -13.750000
v -5.000000 11.500000 -5.000000
v 5.000000 11.500000 -5.000000
v -5.000000 11.500000 5.000000
v 5.000000 11.500000 5.000000
v -5.000000 10.541667 13.750000
v 5.000000 10.541667 13.750000
v -5.000000 -10.541667 13.750000
v 5.000000 -10.541667 13.750000
v -5.000000 -11.500000 5.000000
v 5.000000 -11.500000 5.000000
v -5.000000 -11.500000 -5.000000
v 5.000000 -11.500000 -5.000000
v -5.000000 -10.541667 -13.750000
v 5.000000 -10.541667 -13.750000
v -5.000000 3.833333 15.000000
v 5.000000 3.833333 15.000000
v -5.000000 -3.833333 15.000000
v 5.000000 -3.833333 15.000000
v 5.000000 3.833333 -15.000000
v -5.000000 3.833333 -15.000000
v 5.000000 -3.833333 -15.000000
v -5.000000 -3.833333 -15.000000
v 15.000000 7.666667 10.000000
v 15.000000 7.666667 0.000000
v 15.000000 7.666667 -10.000000
v 15.000000 -0.000000 10.000000
v 15.000000 -0.000000 0.000000
v 15.000000 -0.000000 -10.000000
v 15.000000 -7.666667 10.000000
v 15.000000 -7.666667 0.000000
v 15.000000 -7.666667 -10.000000
v -15.000000 7.666667 -10.000000
v -15.000000 7.666667 0.000000
v -15.000000 7.666667 10.000000
v -15.000000 -0.000000 -10.000000
v -15.000000 -0.000000 0.000000
v -15.000000 -0.000000 10.000000
v -15.000000 -7.666667 -10.000000
v -15.000000 -7.666667 0.000000
v -15.000000 -7.666667 10.000000
v -10.000000 11.500000 -10.000000
v 0.000000 11.500000 -10.000000
v 10.000000 11.500000 -10.000000
v -10.000000 11.500000 0.000000
v 0.000000 11.500000 0.000000
v 10.000000 11.500000 0.000000
v -10.000000 11.500000 10.000000
v 0.000000 11.500000 10.000000
v 10.000000 11.500000 10.000000
v -10.000000 -11.500000 10.000000
v 0.000000 -11.500000 10.000000
v 10.000000 -11.500000 10.000000
v -10.000000 -11.500000 0.000000
v 0.000000 -11.500000 0.000000
v 10.000000 -11.500000 0.000000
v -10.000000 -11.500000 -10.000000
v 0.000000 -11.500000 -10.000000
v 10.000000 -11.500000 -10.000000
v -10.000000 7.666667 15.000000
v 0.000000 7.666667 15.000000
v 10.000000 7.666667 15.000000
v -10.000000 -0.000000 15.000000
v 0.000000 -0.000000 15.000000
v 10.000000 -0.000000 15.000000
v -10.000000 -7.666667 15.000000
v 0.000000 -7.666667 15.000000
v 10.000000 -7.666667 15.000000
v 10.000000 7.666667 -15.000000
v 0.000000 7.666667 -15.000000
v -10.000000 7.666667 -15.000000
v 10.000000 -0.000000 -15.000000
v 0.000000 -0.000000 -15.000000
v -10.000000 -0.000000 -15.000000
v 10.000000 -7.666667 -15.000000
v 0.000000 -7.666667 -15.000000
v -10.000000 -7.666667 -15.000000
v 13.750000 7.666667 13.750000
v 15.000000 3.833333 10.000000
v 15.000000 7.666667 5.000000
v 13.750000 10.541667 10.000000
v 15.000000 3.833333 0.000000
v 15.000000 7.666667 -5.000000
v 13.750000 10.541667 0.000000
v 15.000000 3.833333 -10.000000
v 13.750000 7.666667 -13.750000
v 13.750000 10.541667 -10.000000
v 13.750000 -0.000000 13.750000
v 15.000000 -3.833333 10.000000
v 15.000000 -0.000000 5.000000
v 15.000000 -3.833333 0.000000
v 15.000000 -0.000000 -5.000000
v 15.000000 -3.833333 -10.000000
v 13.750000 -0.000000 -13.750000
v 13.750000 -7.666667 13.750000
v 13.750000 -10.541667 10.000000
v 15.000000 -7.666667 5.000000
v 13.750000 -10.541667 0.000000
v 15.000000 -7.666667 -5.000000
v 13.750000 -10.541667 -10.000000
v 13.750000 -7.666667 -13.750000
v -13.750000 7.666667 -13.750000
v -15.000000 3.833333 -10.000000
v -15.000000 7.666667 -5.000000
v -13.750000 10.541667 -10.000000
v -15.000000 3.833333 0.000000
v -15.000000 7.666667 5.000000
v -13.750000 10.541667 0.000000
v -15.000000 3.833333 10.000000
v -13.750000 7.666667 13.750000
v -13.750000 10.541667 10.000000
v -13.750000 -0.000000 -13.750000
v -15.000000 -3.833333 -10.000000
v -15.000000 -0.000000 -5.000000
v -15.000000 -3.833333 0.000000
v -15.000000 -0.000000 5.000000
v -15.000000 -3.833333 10.000000
v -13.750000 -0.000000 13.750000
v -13.750000 -7.666667 -13.750000
v -13.750000 -10.541667 -10.000000
v -15.000000 -7.666667 -5.000000
v -13.750000 -10.541667 0.000000
v -15.000000 -7.666667 5.000000
v -13.750000 -10.541667 10.000000
v -13.750000 -7.666667 13.750000
v -10.000000 11.500000 -5.000000
v -5.000000 11.500000 -10.000000
v -10.000000 10.541667 -13.750000
v 0.000000 11.500000 -5.000000
v 5.000000 11.500000 -10.000000
v 0.000000 10.541667 -13.750000
v 10.000000 11.500000 -5.000000
v 10.000000 10.541667 -13.750000
v -10.000000 11.500000 5.000000
v -5.000000 11.500000 0.000000
v 0.000000 11.500000 5.000000
v 5.000000 11.500000 0.000000
v 10.000000 11.500000 5.000000
v -10.000000 10.541667 13.750000
v -5.000000 11.500000 10.000000
v 0.000000 10.541667 13.750000
v 5.000000 11.500000 10.000000
v 10.000000 10.541667 13.750000
v -10.000000 -11.500000 5.000000
v -5.000000 -11.500000 10.000000
v -10.000000 -10.541667 13.750000
v 0.000000 -11.500000 5.000000
v 5.000000 -11.500000 10.000000
v 0.000000 -10.541667 13.750000
v 10.000000 -11.500000 5.000000
v 10.000000 -10.541667 13.750000
v -10.000000 -11.500000 -5.000000
v -5.000000 -11.500000 0.000000
v 0.000000 -11.500000 -5.000000
v 5.000000 -11.500000 0.000000
v 10.000000 -11.500000 -5.000000
v -10.000000 -10.541667 -13.750000
v -5.000000 -11.500000 -10.000000
v 0.000000 -10.541667 -13.750000
v 5.000000 -11.500000 -10.000000
v 10.000000 -10.541667 -13.750000
v -10.000000 3.833333 15.000000
v -5.000000 7.666667 15.000000
v 0.000000 3.833333 15.000000
v 5.000000 7.666667 15.000000
v 10.000000 3.833333 15.000000
v -10.000000 -3.833333 15.000000
v -5.000000 -0.000000 15.000000
v 0.000000 -3.833333 15.000000
v 5.000000 -0.000000 15.000000
v 10.000000 -3.833333 15.000000
v -5.000000 -7.666667 15.000000
v 5.000000 -7.666667 15.000000
v 10.000000 3.833333 -15.000000
v 5.000000 7.666667 -15.000000
v 0.000000 3.833333 -15.000000
v -5.000000 7.666667 -15.000000
v -10.000000 3.833333 -15.000000
v 10.000000 -3.833333 -15.000000
v 5.000000 -0.000000 -15.000000
v 0.000000 -3.833333 -15.000000
v -5.000000 -0.000000 -15.000000
v -10.000000 -3.833333 -15.000000
v 5.000000 -7.666667 -15.000000
v -5.000000 -7.666667 -15.000000
vt 0.166667 0.833333
vt 0.000000 0.833333
vt 0.000000 0.666667
vt 0.166667 0.666667
vt 0.333333 0.666667
vt 0.333333 0.833333
vt 0.333333 1.000000
vt 0.166667 1.000000
vt 0.000000 1.000000
vt 0.500000 0.833333
vt 0.500000 0.666667
vt 0.666667 0.666667
vt 0.666667 0.833333
vt 0.666667 1.000000
vt 0.500000 1.000000
vt 0.833333 0.833333
vt 0.833333 0.666667
vt 1.000000 0.666667
vt 1.000000 0.833333
vt 1.000000 1.000000
vt 0.833333 1.000000
vt 0.166667 0.500000
vt 0.000000 0.500000
vt 0.000000 0.333333
vt 0.166667 0.333333
vt 0.333333 0.333333
vt 0.333333 0.500000
vt 0.500000 0.500000
vt 0.500000 0.333333
vt 0.666667 0.333333
vt 0.666667 0.500000
vt 0.833333 0.500000
vt 0.833333 0.333333
vt 1.000000 0.333333
vt 1.000000 0.500000
vt 0.166667 0.166667
vt 0.000000 0.166667
vt 0.000000 0.000000
vt 0.166667 0.000000
vt 0.333333 0.000000
vt 0.333333 0.166667
vt 0.500000 0.166667
vt 0.500000 0.000000
vt 0.666667 0.000000
vt 0.666667 0.166667
vt 0.833333 0.166667
vt 0.833333 0.000000
vt 1.000000 0.000000
vt 1.000000 0.166667
vn 0.961500 0.216800 0.169000
vn 0.685500 0.245500 0.685500
vn 0.707100 0.000000 0.707100
vn 0.987100 0.000000 0.160200
vn 1.000000 0.000000 0.000000
vn 0.979000 0.203600 0.000000
vn 0.648400 0.761300 0.000000
vn 0.633100 0.755000 0.170800
vn 0.533000 0.657200 0.533000
vn 0.961500 0.216800 -0.169000
vn 0.987100 0.000000 -0.160200
vn 0.707100 0.000000 -0.707100
vn 0.685500 0.245500 -0.685500
vn 0.533000 0.657200 -0.533000
vn 0.633100 0.755000 -0.170800
vn 0.961500 -0.216800 0.169000
vn 0.685500 -0.245500 0.685500
vn 0.533000 -0.657200 0.533000
vn 0.633100 -0.755000 0.170800
vn 0.648400 -0.761300 0.000000
vn 0.979000 -0.203600 0.000000
vn 0.961500 -0.216800 -0.169000
vn 0.633100 -0.755000 -0.170800
vn 0.533000 -0.657200 -0.533000
vn 0.685500 -0.245500 -0.685500
vn 0.169000 0.216800 -0.961500
vn 0.160200 0.000000 -0.987100
vn 0.000000 0.000000 -1.000000
vn 0.000000 0.203600 -0.979000
vn 0.000000 0.761300 -0.648400
vn 0.170800 0.755000 -0.633100
vn -0.169000 0.216800 -0.961500
vn -0.160200 0.000000 -0.987100
vn -0.707100 0.000000 -0.707100
vn -0.685500 0.245500 -0.685500
vn -0.533000 0.657200 -0.533000
vn -0.170800 0.755000 -0.633100
vn 0.169000 -0.216800 -0.961500
vn 0.170800 -0.755000 -0.633100
vn 0.000000 -0.761300 -0.648400
vn 0.000000 -0.203600 -0.979000
vn -0.169000 -0.216800 -0.961500
vn -0.170800 -0.755000 -0.633100
vn -0.533000 -0.657200 -0.533000
vn -0.685500 -0.245500 -0.685500
vn -0.961500 0.216800 -0.169000
vn -0.987100 0.000000 -0.160200
vn -1.000000 0.000000 0.000000
vn -0.979000 0.203600 0.000000
vn -0.648400 0.761300 0.000000
vn -0.633100 0.755000 -0.170800
vn -0.961500 0.216800 0.169000
vn -0.987100 0.000000 0.160200
vn -0.707100 0.000000 0.707100
vn -0.685500 0.245500 0.685500
vn -0.533000 0.657200 0.533000
vn -0.633100 0.755000 0.170800
vn -0.961500 -0.216800 -0.169000
vn -0.633100 -0.755000 -0.170800
vn -0.648400 -0.761300 0.000000
vn -0.979000 -0.203600 0.000000
vn -0.961500 -0.216800 0.169000
vn -0.633100 -0.755000 0.170800
vn -0.533000 -0.657200 0.533000
vn -0.685500 -0.245500 0.685500
vn -0.169000 0.216800 0.961500
vn -0.160200 0.000000 0.987100
vn 0.000000 0.000000 1.000000
vn 0.000000 0.203600 0.979000
vn 0.000000 0.761300 0.648400
vn -0.170800 0.755000 0.633100
vn 0.169000 0.216800 0.961500
vn 0.160200 0.000000 0.987100
vn 0.170800 0.755000 0.633100
vn -0.169000 -0.216800 0.961500
vn -0.170800 -0.755000 0.633100
vn 0.000000 -0.761300 0.648400
vn 0.000000 -0.203600 0.979000
vn 0.169000 -0.216800 0.961500
vn 0.170800 -0.755000 0.633100
vn -0.134700 0.981700 -0.134700
vn -0.124800 0.992200 0.000000
vn 0.000000 1.000000 0.000000
vn 0.000000 0.992200 -0.124800
vn 0.134700 0.981700 -0.134700
vn 0.124800 0.992200 0.000000
vn -0.134700 0.981700 0.134700
vn 0.000000 0.992200 0.124800
vn 0.134700 0.981700 0.134700
vn -0.134700 -0.981700 0.134700
vn -0.124800 -0.992200 0.000000
vn 0.000000 -1.000000 0.000000
vn 0.000000 -0.992200 0.124800
vn 0.134700 -0.981700 0.134700
vn 0.124800 -0.992200 0.000000
vn -0.134700 -0.981700 -0.134700
vn 0.000000 -0.992200 -0.124800
vn 0.134700 -0.981700 -0.134700
usemtl Standard_wall1
s 1
f 57/1/1 111/2/2 5/3/3 112/4/4
f 57/1/1 112/4/4 6/5/5 113/6/6
f 57/1/1 113/6/6 2/7/7 114/8/8
f 57/1/1 114/8/8 1/9/9 111/2/2
f 58/10/6 113/6/6 6/5/5 115/11/5
f 58/10/6 115/11/5 7/12/5 116/13/6
f 58/10/6 116/13/6 3/14/7 117/15/7
f 58/10/6 117/15/7 2/7/7 113/6/6
f 59/16/10 116/13/6 7/12/5 118/17/11
f 59/16/10 118/17/11 8/18/12 119/19/13
f 59/16/10 119/19/13 4/20/14 120/21/15
f 59/16/10 120/21/15 3/14/7 116/13/6
f 60/22/4 121/23/3 9/24/3 122/25/4
f 60/22/4 122/25/4 10/26/5 123/27/5
f 60/22/4 123/27/5 6/5/5 112/4/4
f 60/22/4 112/4/4 5/3/3 121/23/3
f 61/28/5 123/27/5 10/26/5 124/29/5
f 61/28/5 124/29/5 11/30/5 125/31/5
f 61/28/5 125/31/5 7/12/5 115/11/5
f 61/28/5 115/11/5 6/5/5 123/27/5
f 62/32/11 125/31/5 11/30/5 126/33/11
f 62/32/11 126/33/11 12/34/12 127/35/12
f 62/32/11 127/35/12 8/18/12 118/17/11
f 62/32/11 118/17/11 7/12/5 125/31/5
f 63/36/16 128/37/17 13/38/18 129/39/19
f 63/36/16 129/39/19 14/40/20 130/41/21
f 63/36/16 130/41/21 10/26/5 122/25/4
f 63/36/16 122/25/4 9/24/3 128/37/17
f 64/42/21 130/41/21 14/40/20 131/43/20
f 64/42/21 131/43/20 15/44/20 132/45/21
f 64/42/21 132/45/21 11/30/5 124/29/5
f 64/42/21 124/29/5 10/26/5 130/41/21
f 65/46/22 132/45/21 15/44/20 133/47/23
f 65/46/22 133/47/23 16/48/24 134/49/25
f 65/46/22 134/49/25 12/34/12 126/33/11
f 65/46/22 126/33/11 11/30/5 132/45/21
usemtl Standard_wall2
f 102/1/26 119/2/13 8/3/12 207/4/27
f 102/1/26 207/4/27 53/5/28 208/6/29
f 102/1/26 208/6/29 34/7/30 166/8/31
f 102/1/26 166/8/31 4/9/14 119/2/13
f 103/10/29 208/6/29 53/5/28 209/11/28
f 103/10/29 209/11/28 54/12/28 210/13/29
f 103/10/29 210/13/29 33/14/30 164/15/30
f 103/10/29 164/15/30 34/7/30 208/6/29
f 104/16/32 210/13/29 54/12/28 211/17/33
f 104/16/32 211/17/33 21/18/34 135/19/35
f 104/16/32 135/19/35 17/20/36 161/21/37
f 104/16/32 161/21/37 33/14/30 210/13/29
f 105/22/27 127/23/12 12/24/12 212/25/27
f 105/22/27 212/25/27 55/26/28 213/27/28
f 105/22/27 213/27/28 53/5/28 207/4/27
f 105/22/27 207/4/27 8/3/12 127/23/12
f 106/28/28 213/27/28 55/26/28 214/29/28
f 106/28/28 214/29/28 56/30/28 215/31/28
f 106/28/28 215/31/28 54/12/28 209/11/28
f 106/28/28 209/11/28 53/5/28 213/27/28
f 107/32/33 215/31/28 56/30/28 216/33/33
f 107/32/33 216/33/33 25/34/34 145/35/34
f 107/32/33 145/35/34 21/18/34 211/17/33
f 107/32/33 211/17/33 54/12/28 215/31/28
f 108/36/38 134/37/25 16/38/24 194/39/39
f 108/36/38 194/39/39 48/40/40 217/41/41
f 108/36/38 217/41/41 55/26/28 212/25/27
f 108/36/38 212/25/27 12/24/12 134/37/25
f 109/42/41 217/41/41 48/40/40 192/43/40
f 109/42/41 192/43/40 47/44/40 218/45/41
f 109/42/41 218/45/41 56/30/28 214/29/28
f 109/42/41 214/29/28 55/26/28 217/41/41
f 110/46/42 218/45/41 47/44/40 190/47/43
f 110/46/42 190/47/43 29/48/44 152/49/45
f 110/46/42 152/49/45 25/34/34 216/33/33
f 110/46/42 216/33/33 56/30/28 218/45/41
usemtl Standard_wall1
f 66/1/46 135/2/35 21/3/34 136/4/47
f 66/1/46 136/4/47 22/5/48 137/6/49
f 66/1/46 137/6/49 18/7/50 138/8/51
f 66/1/46 138/8/51 17/9/36 135/2/35
f 67/10/49 137/6/49 22/5/48 139/11/48
f 67/10/49 139/11/48 23/12/48 140/13/49
f 67/10/49 140/13/49 19/14/50 141/15/50
f 67/10/49 141/15/50 18/7/50 137/6/49
f 68/16/52 140/13/49 23/12/48 142/17/53
f 68/16/52 142/17/53 24/18/54 143/19/55
f 68/16/52 143/19/55 20/20/56 144/21/57
f 68/16/52 144/21/57 19/14/50 140/13/49
f 69/22/47 145/23/34 25/24/34 146/25/47
f 69/22/47 146/25/47 26/26/48 147/27/48
f 69/22/47 147/27/48 22/5/48 136/4/47
f 69/22/47 136/4/47 21/3/34 145/23/34
f 70/28/48 147/27/48 26/26/48 148/29/48
f 70/28/48 148/29/48 27/30/48 149/31/48
f 70/28/48 149/31/48 23/12/48 139/11/48
f 70/28/48 139/11/48 22/5/48 147/27/48
f 71/32/53 149/31/48 27/30/48 150/33/53
f 71/32/53 150/33/53 28/34/54 151/35/54
f 71/32/53 151/35/54 24/18/54 142/17/53
f 71/32/53 142/17/53 23/12/48 149/31/48
f 72/36/58 152/37/45 29/38/44 153/39/59
f 72/36/58 153/39/59 30/40/60 154/41/61
f 72/36/58 154/41/61 26/26/48 146/25/47
f 72/36/58 146/25/47 25/24/34 152/37/45
f 73/42/61 154/41/61 30/40/60 155/43/60
f 73/42/61 155/43/60 31/44/60 156/45/61
f 73/42/61 156/45/61 27/30/48 148/29/48
f 73/42/61 148/29/48 26/26/48 154/41/61
f 74/46/62 156/45/61 31/44/60 157/47/63
f 74/46/62 157/47/63 32/48/64 158/49/65
f 74/46/62 158/49/65 28/34/54 150/33/53
f 74/46/62 150/33/53 27/30/48 156/45/61
usemtl Standard_wall2
f 93/1/66 143/2/55 24/3/54 195/4/67
f 93/1/66 195/4/67 49/5/68 196/6/69
f 93/1/66 196/6/69 39/7/70 172/8/71
f 93/1/66 172/8/71 20/9/56 143/2/55
f 94/10/69 196/6/69 49/5/68 197/11/68
f 94/10/69 197/11/68 50/12/68 198/13/69
f 94/10/69 198/13/69 40/14/70 174/15/70
f 94/10/69 174/15/70 39/7/70 196/6/69
f 95/16/72 198/13/69 50/12/68 199/17/73
f 95/16/72 199/17/73 5/18/3 111/19/2
f 95/16/72 111/19/2 1/20/9 176/21/74
f 95/16/72 176/21/74 40/14/70 198/13/69
f 96/22/67 151/23/54 28/24/54 200/25/67
f 96/22/67 200/25/67 51/26/68 201/27/68
f 96/22/67 201/27/68 49/5/68 195/4/67
f 96/22/67 195/4/67 24/3/54 151/23/54
f 97/28/68 201/27/68 51/26/68 202/29/68
f 97/28/68 202/29/68 52/30/68 203/31/68
f 97/28/68 203/31/68 50/12/68 197/11/68
f 97/28/68 197/11/68 49/5/68 201/27/68
f 98/32/73 203/31/68 52/30/68 204/33/73
f 98/32/73 204/33/73 9/34/3 121/35/3
f 98/32/73 121/35/3 5/18/3 199/17/73
f 98/32/73 199/17/73 50/12/68 203/31/68
f 99/36/75 158/37/65 32/38/64 179/39/76
f 99/36/75 179/39/76 41/40/77 205/41/78
f 99/36/75 205/41/78 51/26/68 200/25/67
f 99/36/75 200/25/67 28/24/54 158/37/65
f 100/42/78 205/41/78 41/40/77 182/43/77
f 100/42/78 182/43/77 42/44/77 206/45/78
f 100/42/78 206/45/78 52/30/68 202/29/68
f 100/42/78 202/29/68 51/26/68 205/41/78
f 101/46/79 206/45/78 42/44/77 184/47/80
f 101/46/79 184/47/80 13/48/18 128/49/17
f 101/46/79 128/49/17 9/34/3 204/33/73
f 101/46/79 204/33/73 52/30/68 206/45/78
usemtl Standard_tb
f 75/1/81 138/2/51 18/3/50 159/4/82
f 75/1/81 159/4/82 35/5/83 160/6/84
f 75/1/81 160/6/84 33/7/30 161/8/37
f 75/1/81 161/8/37 17/9/36 138/2/51
f 76/10/84 160/6/84 35/5/83 162/11/83
f 76/10/84 162/11/83 36/12/83 163/13/84
f 76/10/84 163/13/84 34/14/30 164/15/30
f 76/10/84 164/15/30 33/7/30 160/6/84
f 77/16/85 163/13/84 36/12/83 165/17/86
f 77/16/85 165/17/86 3/18/7 120/19/15
f 77/16/85 120/19/15 4/20/14 166/21/31
f 77/16/85 166/21/31 34/14/30 163/13/84
f 78/22/82 141/23/50 19/24/50 167/25/82
f 78/22/82 167/25/82 37/26/83 168/27/83
f 78/22/82 168/27/83 35/5/83 159/4/82
f 78/22/82 159/4/82 18/3/50 141/23/50
f 79/28/83 168/27/83 37/26/83 169/29/83
f 79/28/83 169/29/83 38/30/83 170/31/83
f 79/28/83 170/31/83 36/12/83 162/11/83
f 79/28/83 162/11/83 35/5/83 168/27/83
f 80/32/86 170/31/83 38/30/83 171/33/86
f 80/32/86 171/33/86 2/34/7 117/35/7
f 80/32/86 117/35/7 3/18/7 165/17/86
f 80/32/86 165/17/86 36/12/83 170/31/83
f 81/36/87 144/37/57 20/38/56 172/39/71
f 81/36/87 172/39/71 39/40/70 173/41/88
f 81/36/87 173/41/88 37/26/83 167/25/82
f 81/36/87 167/25/82 19/24/50 144/37/57
f 82/42/88 173/41/88 39/40/70 174/43/70
f 82/42/88 174/43/70 40/44/70 175/45/88
f 82/42/88 175/45/88 38/30/83 169/29/83
f 82/42/88 169/29/83 37/26/83 173/41/88
f 83/46/89 175/45/88 40/44/70 176/47/74
f 83/46/89 176/47/74 1/48/9 114/49/8
f 83/46/89 114/49/8 2/34/7 171/33/86
f 83/46/89 171/33/86 38/30/83 175/45/88
f 84/1/90 157/2/63 31/3/60 177/4/91
f 84/1/90 177/4/91 43/5/92 178/6/93
f 84/1/90 178/6/93 41/7/77 179/8/76
f 84/1/90 179/8/76 32/9/64 157/2/63
f 85/10/93 178/6/93 43/5/92 180/11/92
f 85/10/93 180/11/92 44/12/92 181/13/93
f 85/10/93 181/13/93 42/14/77 182/15/77
f 85/10/93 182/15/77 41/7/77 178/6/93
f 86/16/94 181/13/93 44/12/92 183/17/95
f 86/16/94 183/17/95 14/18/20 129/19/19
f 86/16/94 129/19/19 13/20/18 184/21/80
f 86/16/94 184/21/80 42/14/77 181/13/93
f 87/22/91 155/23/60 30/24/60 185/25/91
f 87/22/91 185/25/91 45/26/92 186/27/92
f 87/22/91 186/27/92 43/5/92 177/4/91
f 87/22/91 177/4/91 31/3/60 155/23/60
f 88/28/92 186/27/92 45/26/92 187/29/92
f 88/28/92 187/29/92 46/30/92 188/31/92
f 88/28/92 188/31/92 44/12/92 180/11/92
f 88/28/92 180/11/92 43/5/92 186/27/92
f 89/32/95 188/31/92 46/30/92 189/33/95
f 89/32/95 189/33/95 15/34/20 131/35/20
f 89/32/95 131/35/20 14/18/20 183/17/95
f 89/32/95 183/17/95 44/12/92 188/31/92
f 90/36/96 153/37/59 29/38/44 190/39/43
f 90/36/96 190/39/43 47/40/40 191/41/97
f 90/36/96 191/41/97 45/26/92 185/25/91
f 90/36/96 185/25/91 30/24/60 153/37/59
f 91/42/97 191/41/97 47/40/40 192/43/40
f 91/42/97 192/43/40 48/44/40 193/45/97
f 91/42/97 193/45/97 46/30/92 187/29/92
f 91/42/97 187/29/92 45/26/92 191/41/97
f 92/46/98 193/45/97 48/44/40 194/47/39
f 92/46/98 194/47/39 16/48/24 133/49/23
f 92/46/98 133/49/23 15/34/20 189/33/95
f 92/46/98 189/33/95 46/30/92 193/45/97
